<?xml version="1.0" encoding="UTF-8"?>
<svg version="1.1" xmlns="http://www.w3.org/2000/svg" width="200" height="200">
<path d="M0 0 C66 0 132 0 200 0 C200 66 200 132 200 200 C134 200 68 200 0 200 C0 134 0 68 0 0 Z " fill="#014E3A" transform="translate(0,0)"/>
<path d="M0 0 C1.25167969 0.00902344 2.50335938 0.01804688 3.79296875 0.02734375 C6.8621801 0.05077284 9.93098756 0.08357853 13 0.125 C13.84119733 27.59332811 13.84119733 27.59332811 9 39.125 C8.56429687 40.16527344 8.12859375 41.20554688 7.6796875 42.27734375 C4.46411394 49.2444198 0.39810017 55.62963676 -5 61.125 C-5.66 61.125 -6.32 61.125 -7 61.125 C-7 61.785 -7 62.445 -7 63.125 C-24.1525735 77.89708326 -42.24262776 80.84511675 -64.12084961 80.30200195 C-66 80.125 -66 80.125 -67 79.125 C-68.96558224 58.25729451 -65.09839053 39.70055193 -52.33984375 22.85546875 C-38.51471279 6.72230258 -20.80788317 -0.28564148 0 0 Z " fill="#B5DD44" transform="translate(140,46.875)"/>
<path d="M0 0 C0.66 0 1.32 0 2 0 C4.83116853 5.56122391 6.73667355 11.0943529 8.25 17.125 C8.42499023 17.7739624 8.59998047 18.4229248 8.78027344 19.09155273 C10.58040809 26.66244099 10 32.70880336 10 41 C-23.33 41 -56.66 41 -91 41 C-87.11660261 33.23320521 -80.00514954 27.84338063 -72.0078125 24.65625 C-68.21531963 23.41668035 -64.88949359 22.87463884 -60.88671875 22.82421875 C-37.11284889 22.32676065 -17.32888733 17.32888733 0 0 Z " fill="#FCFDFD" transform="translate(143,112)"/>
<path d="M0 0 C14.1302593 0 14.1302593 0 20.5 1.1875 C21.57012329 1.37953003 21.57012329 1.37953003 22.66186523 1.57543945 C29.1505672 2.84030356 35.05822763 5.10352908 41 8 C39.65705315 10.98577503 38.1496314 13.03689051 35.875 15.375 C26.08158188 26.37470553 19.00831967 41.47310367 18.82421875 56.31640625 C18.50263266 71.88092355 17.89626844 84.02876337 7 96 C6.50757813 96.54914063 6.01515625 97.09828125 5.5078125 97.6640625 C4.1875 99.0625 4.1875 99.0625 2 101 C1.34 101 0.68 101 0 101 C0 67.67 0 34.34 0 0 Z " fill="#F9FCFC" transform="translate(47,47)"/>
<path d="M0 0 C0.66 0.33 1.32 0.66 2 1 C3.32 0.67 4.64 0.34 6 0 C4.68 2.97 3.36 5.94 2 9 C2.66 9.33 3.32 9.66 4 10 C3.32904297 10.90878906 3.32904297 10.90878906 2.64453125 11.8359375 C-10.28642861 29.75731045 -12.77789641 46.36251216 -12 68 C7.88629196 68.71493859 23.99283348 66.93928299 41 56 C42.34700746 54.68048249 43.68488738 53.35130838 45 52 C45.66 52 46.32 52 47 52 C47 51.34 47 50.68 47 50 C47.66 50 48.32 50 49 50 C49.26554687 49.42765625 49.53109375 48.8553125 49.8046875 48.265625 C51.05676891 45.8923988 52.4936352 43.87786714 54.125 41.75 C54.66382813 41.04359375 55.20265625 40.3371875 55.7578125 39.609375 C56.16773438 39.07828125 56.57765625 38.5471875 57 38 C58.06517032 41.61557813 57.75606317 42.68299179 56 46 C55.61709538 47.99110401 55.27395385 49.99100513 55 52 C55.99 51.67 56.98 51.34 58 51 C58.66 51.33 59.32 51.66 60 52 C59.67 53.32 59.34 54.64 59 56 C59 55.34 59 54.68 59 54 C58.33355469 54.56847656 57.66710937 55.13695312 56.98046875 55.72265625 C39.40136463 70.44976586 22.89462026 77.27426308 0.05859375 77.390625 C-9.04580923 77.60045759 -17.77899655 79.42560016 -24.875 85.5 C-25.59300781 86.09941406 -26.31101562 86.69882813 -27.05078125 87.31640625 C-28.01564453 88.14978516 -28.01564453 88.14978516 -29 89 C-30.010625 89.804375 -31.02125 90.60875 -32.0625 91.4375 C-33.0215625 92.2109375 -33.0215625 92.2109375 -34 93 C-34.66 91.35 -35.32 89.7 -36 88 C-35.39671875 87.39414063 -34.7934375 86.78828125 -34.171875 86.1640625 C-26.53485247 78.15750662 -22.00548356 69.9716086 -21.7890625 58.78125 C-21.19920365 35.77491713 -16.79067283 16.79067283 0 0 Z " fill="#064F37" transform="translate(86,58)"/>
<path d="M0 0 C0 33.33 0 66.66 0 101 C-1.485 101.495 -1.485 101.495 -3 102 C-3 68.67 -3 35.34 -3 1 C-1 0 -1 0 0 0 Z " fill="#2A5C51" transform="translate(47,47)"/>
<path d="M0 0 C0 0.66 0 1.32 0 2 C0.66 2 1.32 2 2 2 C2.02934144 5.97915085 2.04691265 9.95827337 2.0625 13.9375 C2.07087891 15.05447266 2.07925781 16.17144531 2.08789062 17.32226562 C2.14012686 35.13482029 2.14012686 35.13482029 -2 41 C-2.33 41.99 -2.66 42.98 -3 44 C-3.66 44 -4.32 44 -5 44 C-5.66 46.31 -6.32 48.62 -7 51 C-7.99 51 -8.98 51 -10 51 C-9.51080078 50.01773438 -9.51080078 50.01773438 -9.01171875 49.015625 C-8.57472656 48.10296875 -8.13773438 47.1903125 -7.6875 46.25 C-7.25824219 45.36828125 -6.82898438 44.4865625 -6.38671875 43.578125 C-2.70204781 34.07063603 -1.52206463 24.89292792 -1.3125 14.75 C-1.27833984 13.61175781 -1.24417969 12.47351563 -1.20898438 11.30078125 C-1.12760707 8.53395298 -1.05810893 5.7673977 -1 3 C-25.71704541 3.02699114 -25.71704541 3.02699114 -48.29296875 12.046875 C-50 13 -50 13 -52 13 C-50.5 10 -50.5 10 -49 7 C-47.2578125 6.4375 -47.2578125 6.4375 -45.125 6 C-42.04667039 5.36388761 -40.7316047 4.8210698 -38 3 C-31.9858082 1.09645694 -25.82887142 0.61957559 -19.5625 0.375 C-18.32342896 0.31807983 -18.32342896 0.31807983 -17.05932617 0.26000977 C-11.36908959 0.01309504 -5.69568988 -0.09337197 0 0 Z " fill="#1E6024" transform="translate(154,44)"/>
<path d="M0 0 C1.06517032 3.61557813 0.75606317 4.68299179 -1 8 C-1.38290462 9.99110401 -1.72604615 11.99100513 -2 14 C-1.01 13.67 -0.02 13.34 1 13 C1.66 13.33 2.32 13.66 3 14 C2.67 15.32 2.34 16.64 2 18 C2 17.34 2 16.68 2 16 C-1.63 18.97 -5.26 21.94 -9 25 C-9.99 24.34 -10.98 23.68 -12 23 C-11.67 22.01 -11.34 21.02 -11 20 C-10.01 20 -9.02 20 -8 20 C-8.33 19.34 -8.66 18.68 -9 18 C-10.6396875 18.680625 -10.6396875 18.680625 -12.3125 19.375 C-12.92738281 19.63023438 -13.54226562 19.88546875 -14.17578125 20.1484375 C-16.26533932 21.06806692 -16.26533932 21.06806692 -19 23 C-21.1875 22.625 -21.1875 22.625 -23 22 C-21.58531689 21.03874097 -20.1681636 20.08111675 -18.75 19.125 C-17.56664063 18.32449219 -17.56664063 18.32449219 -16.359375 17.5078125 C-14.28444308 16.18177985 -12.22385028 15.05071825 -10 14 C-10 13.34 -10 12.68 -10 12 C-9.34 12 -8.68 12 -8 12 C-7.60167969 11.14148438 -7.60167969 11.14148438 -7.1953125 10.265625 C-5.94323109 7.8923988 -4.5063648 5.87786714 -2.875 3.75 C-2.33617187 3.04359375 -1.79734375 2.3371875 -1.2421875 1.609375 C-0.83226562 1.07828125 -0.42234375 0.5471875 0 0 Z " fill="#0A5232" transform="translate(143,96)"/>
<path d="M0 0 C8.91 0 17.82 0 27 0 C27.4274241 19.8752205 26.68030204 33.38185029 17 51 C16.34 50.67 15.68 50.34 15 50 C15 49.34 15 48.68 15 48 C15.66 48 16.32 48 17 48 C17.66 45.03 18.32 42.06 19 39 C19.66 39 20.32 39 21 39 C21 37.02 21 35.04 21 33 C21.33 33 21.66 33 22 33 C24.41244173 22.78811074 24.61148988 12.43865335 25 2 C24.38479492 2.01047363 23.76958984 2.02094727 23.13574219 2.03173828 C20.34053657 2.07338695 17.54539634 2.09935416 14.75 2.125 C13.29787109 2.15013672 13.29787109 2.15013672 11.81640625 2.17578125 C10.41455078 2.18544922 10.41455078 2.18544922 8.984375 2.1953125 C8.12553711 2.20578613 7.26669922 2.21625977 6.38183594 2.22705078 C4 2 4 2 0 0 Z " fill="#A6D962" transform="translate(126,47)"/>
<path d="M0 0 C0.66 0 1.32 0 2 0 C3 5 3 5 3 20 C-30.33 20 -63.66 20 -98 20 C-96.11656068 16.23312136 -95.30867531 15.20578354 -92 13 C-92.66 14.65 -93.32 16.3 -94 18 C-81.90888425 18.06939873 -69.81781559 18.12275965 -57.72654152 18.15543652 C-52.11254485 18.17111687 -46.49868407 18.19239833 -40.88476562 18.22631836 C-35.4707238 18.25882735 -30.05681298 18.27683514 -24.64268112 18.28463173 C-22.57332673 18.29019048 -20.50397981 18.30104481 -18.43468094 18.31719017 C-15.54434762 18.33885203 -12.6545611 18.34197166 -9.76416016 18.34057617 C-8.90173203 18.351362 -8.03930389 18.36214783 -7.15074158 18.3732605 C-4.53456501 18.39521606 -4.53456501 18.39521606 -1 18 C1.51005664 14.23491505 1.0258295 11.60538391 0.625 7.3125 C0.56828125 6.61060547 0.5115625 5.90871094 0.453125 5.18554688 C0.31195359 3.45619715 0.15728041 1.72795912 0 0 Z " fill="#E0FAF7" transform="translate(150,133)"/>
<path d="M0 0 C0.66 0 1.32 0 2 0 C-2 16 -2 16 -2.54101562 17.91796875 C-3.08114179 20.36807296 -3.21438329 22.6962752 -3.31640625 25.203125 C-3.35830078 26.1828125 -3.40019531 27.1625 -3.44335938 28.171875 C-3.50233398 29.69554687 -3.50233398 29.69554687 -3.5625 31.25 C-3.60568359 32.28125 -3.64886719 33.3125 -3.69335938 34.375 C-3.79925682 36.9165387 -3.90133443 39.45817196 -4 42 C-4.66 41.67 -5.32 41.34 -6 41 C-6.33 34.07 -6.66 27.14 -7 20 C-7.66 22.64 -8.32 25.28 -9 28 C-9.66 28 -10.32 28 -11 28 C-11.33 26.02 -11.66 24.04 -12 22 C-11.67 22 -11.34 22 -11 22 C-10.67 18.7 -10.34 15.4 -10 12 C-9.01 11.67 -8.02 11.34 -7 11 C-6.67 12.32 -6.34 13.64 -6 15 C-5.81824219 14.41992188 -5.63648437 13.83984375 -5.44921875 13.2421875 C-3.9581894 8.60852707 -2.31666424 4.30237645 0 0 Z " fill="#074D28" transform="translate(77,84)"/>
<path d="M0 0 C0.33 0 0.66 0 1 0 C1 2.64 1 5.28 1 8 C0.34 8 -0.32 8 -1 8 C-1 9.65 -1 11.3 -1 13 C-1.66 13 -2.32 13 -3 13 C-3.33 22.24 -3.66 31.48 -4 41 C8.87 41.495 8.87 41.495 22 42 C22 42.33 22 42.66 22 43 C18.51905734 43.78841864 15.30091152 44.12828808 11.734375 44.1328125 C10.76242188 44.13410156 9.79046875 44.13539062 8.7890625 44.13671875 C7.78617188 44.13285156 6.78328125 44.12898438 5.75 44.125 C4.73164062 44.12886719 3.71328125 44.13273437 2.6640625 44.13671875 C1.69726562 44.13542969 0.73046875 44.13414063 -0.265625 44.1328125 C-1.15024414 44.13168457 -2.03486328 44.13055664 -2.94628906 44.12939453 C-5 44 -5 44 -6 43 C-7.404956 28.08421194 -5.80750797 13.83861132 0 0 Z " fill="#8EC55D" transform="translate(79,83)"/>
<path d="M0 0 C3.96 0 7.92 0 12 0 C12 0.33 12 0.66 12 1 C8.37 1 4.74 1 1 1 C1.10749391 12.4047522 1.22012591 23.80944092 1.33933926 35.214077 C1.39453132 40.50955888 1.44794545 45.80504631 1.49731445 51.10058594 C1.54501273 56.20993104 1.59735762 61.31920923 1.65294075 66.42847443 C1.67333952 68.37891222 1.69205668 70.32936834 1.70907402 72.27983856 C1.73317281 75.00921763 1.76322 77.73847066 1.79467773 80.46777344 C1.8004332 81.27625732 1.80618866 82.08474121 1.81211853 82.91772461 C1.8443855 87.05053481 1.8443855 87.05053481 2.5450449 91.1060524 C3 93 3 93 2.4375 95.125 C2.293125 95.74375 2.14875 96.3625 2 97 C2.66 97.66 3.32 98.32 4 99 C2.02 99.99 2.02 99.99 0 101 C0 67.67 0 34.34 0 0 Z " fill="#E5FDFA" transform="translate(47,47)"/>
<path d="M0 0 C0.33 0 0.66 0 1 0 C1.02934144 3.97915085 1.04691265 7.95827337 1.0625 11.9375 C1.07087891 13.05447266 1.07925781 14.17144531 1.08789062 15.32226562 C1.14012686 33.13482029 1.14012686 33.13482029 -3 39 C-3.33 39.99 -3.66 40.98 -4 42 C-4.66 42 -5.32 42 -6 42 C-6.66 44.31 -7.32 46.62 -8 49 C-8.99 49 -9.98 49 -11 49 C-10.68546875 48.3915625 -10.3709375 47.783125 -10.046875 47.15625 C-3.13595844 33.00136066 -1.38153974 19.33918626 -1.1418457 3.80908203 C-1 2 -1 2 0 0 Z " fill="#175A20" transform="translate(155,46)"/>
<path d="M0 0 C0 0.99 0 1.98 0 3 C-0.66 3 -1.32 3 -2 3 C-2 3.66 -2 4.32 -2 5 C-1.01 5 -0.02 5 1 5 C0.67 6.32 0.34 7.64 0 9 C-3.3 9 -6.6 9 -10 9 C-10 8.01 -10 7.02 -10 6 C-12.31 6 -14.62 6 -17 6 C-17.33 6.66 -17.66 7.32 -18 8 C-18.65355469 7.84660156 -19.30710937 7.69320312 -19.98046875 7.53515625 C-23.75492159 6.86620406 -27.48905996 6.64592703 -31.3125 6.4375 C-32.05306641 6.39431641 -32.79363281 6.35113281 -33.55664062 6.30664062 C-35.37091464 6.20129568 -37.1854355 6.10021684 -39 6 C-39 5.67 -39 5.34 -39 5 C-38.44763672 4.9906543 -37.89527344 4.98130859 -37.32617188 4.97167969 C-26.13200652 4.73518324 -15.73869469 3.95213537 -4.95703125 0.83984375 C-2 0 -2 0 0 0 Z " fill="#0C5126" transform="translate(114,122)"/>
<path d="M0 0 C0.66 0.99 1.32 1.98 2 3 C4.64 2.67 7.28 2.34 10 2 C10 2.66 10 3.32 10 4 C8.05859375 5.26171875 8.05859375 5.26171875 5.4375 6.6875 C0.51006409 9.52620774 -3.22517873 12.77520004 -7 17 C-7.99 15.68 -8.98 14.36 -10 13 C-9.61328125 12.56429687 -9.2265625 12.12859375 -8.828125 11.6796875 C-5.56015499 7.94255348 -2.65859411 4.1923984 0 0 Z " fill="#154F3D" transform="translate(60,134)"/>
<path d="M0 0 C-8.47043709 4.01679847 -16.95747348 3.43479134 -26.17382812 3.43945312 C-27.39134766 3.45814453 -28.60886719 3.47683594 -29.86328125 3.49609375 C-30.96969971 3.49794678 -32.07611816 3.4997998 -33.21606445 3.50170898 C-36.13401852 3.73569691 -36.13401852 3.73569691 -37.88354492 6.03149414 C-38.2519751 6.68110107 -38.62040527 7.33070801 -39 8 C-41.475 7.01 -41.475 7.01 -44 6 C-37.41935849 0.20903547 -29.16804122 0.64356951 -20.875 0.4375 C-18.74729002 0.3773301 -16.61967564 0.31365408 -14.4921875 0.24609375 C-13.55745605 0.22216553 -12.62272461 0.1982373 -11.65966797 0.17358398 C-8.99171472 0.0677812 -8.99171472 0.0677812 -6.40673828 -0.57788086 C-3.88852079 -1.0195524 -2.40006629 -0.8000221 0 0 Z " fill="#C6E0DA" transform="translate(110,134)"/>
<path d="M0 0 C0 0.66 0 1.32 0 2 C-1.79036458 2.94401042 -3.58072917 3.88802083 -5.37109375 4.83203125 C-7.32267987 5.99019799 -7.32267987 5.99019799 -8 9 C-9.71206739 9.7243362 -11.42633874 10.44437918 -13.15625 11.125 C-17.07379985 12.9841762 -19.46350611 16.05577076 -21.5625 19.75 C-23 22 -23 22 -25.1875 22.8125 C-25.785625 22.874375 -26.38375 22.93625 -27 23 C-22.35005616 14.67904787 -10.55812022 0 0 0 Z " fill="#A1D75F" transform="translate(111,53)"/>
<path d="M0 0 C0.66 0.33 1.32 0.66 2 1 C4.09821215 0.60061233 4.09821215 0.60061233 6 0 C5.04896078 3.29205884 4.00952605 6.20459632 2 9 C-1.02883338 10.09475905 -3.80282667 10.17078917 -7 10 C-7 10.66 -7 11.32 -7 12 C-7.66 11.67 -8.32 11.34 -9 11 C-7.87672229 9.54033966 -6.75131706 8.08231636 -5.625 6.625 C-4.99851562 5.81289063 -4.37203125 5.00078125 -3.7265625 4.1640625 C-2 2 -2 2 0 0 Z " fill="#175444" transform="translate(86,58)"/>
<path d="M0 0 C0.67354499 1.43429001 1.33859701 2.87257057 2 4.3125 C2.556875 5.51326172 2.556875 5.51326172 3.125 6.73828125 C4 9 4 9 4 12 C3.34 12 2.68 12 2 12 C1.01 9.69 0.02 7.38 -1 5 C-6.27710354 7.3439244 -10.15080717 9.66965806 -14 14 C-14.99 13.34 -15.98 12.68 -17 12 C-16.25234375 11.46890625 -15.5046875 10.9378125 -14.734375 10.390625 C-13.74953125 9.68421875 -12.7646875 8.9778125 -11.75 8.25 C-10.77546875 7.55390625 -9.8009375 6.8578125 -8.796875 6.140625 C-5.99103589 4.09561765 -5.99103589 4.09561765 -3.765625 1.734375 C-2 0 -2 0 0 0 Z " fill="#EBFDFA" transform="translate(145,112)"/>
<path d="M0 0 C-7.40301981 6.01753845 -15.53684384 11.10736877 -25 13 C-27.4375 12.625 -27.4375 12.625 -29 12 C-24.25645564 9.77343836 -20.27749285 8.53851968 -15 8 C-15 7.34 -15 6.68 -15 6 C-13.88625 5.566875 -12.7725 5.13375 -11.625 4.6875 C-7.82487666 3.30088881 -7.82487666 3.30088881 -6 0 C-3 -1 -3 -1 0 0 Z " fill="#A1D368" transform="translate(130,112)"/>
<path d="M0 0 C0.625 1.75 0.625 1.75 1 4 C0.35191436 5.34246312 -0.31822584 6.67432801 -1 8 C-1.38749213 10.32495277 -1.72982839 12.65851268 -2 15 C-3.32 15 -4.64 15 -6 15 C-6 14.34 -6 13.68 -6 13 C-6.66 13 -7.32 13 -8 13 C-7.40885621 9.64525899 -6.28774559 7.87172235 -4 5.375 C-1.72782776 2.87625688 -1.72782776 2.87625688 0 0 Z " fill="#034D2B" transform="translate(143,96)"/>
<path d="M0 0 C-2.16635084 3.64613511 -4.40499869 7.23801681 -6.6875 10.8125 C-7.62142578 12.27623047 -7.62142578 12.27623047 -8.57421875 13.76953125 C-9.04472656 14.50558594 -9.51523438 15.24164063 -10 16 C-11 13 -11 13 -10 10 C-9.34 10 -8.68 10 -8 10 C-8.061875 8.72125 -8.12375 7.4425 -8.1875 6.125 C-8.29296875 3.9453125 -8.29296875 3.9453125 -8 2 C-4.77208445 -0.1519437 -3.71599191 -0.20086443 0 0 Z " fill="#12561F" transform="translate(90,67)"/>
<path d="M0 0 C0.33 0 0.66 0 1 0 C1 8.25 1 16.5 1 25 C0.01 25.33 -0.98 25.66 -2 26 C-1.86157705 22.04137069 -1.71300994 18.08318673 -1.5625 14.125 C-1.52318359 12.99707031 -1.48386719 11.86914062 -1.44335938 10.70703125 C-1.40146484 9.63066406 -1.35957031 8.55429687 -1.31640625 7.4453125 C-1.27974854 6.45031738 -1.24309082 5.45532227 -1.20532227 4.43017578 C-1 2 -1 2 0 0 Z " fill="#084F1D" transform="translate(155,46)"/>
<path d="M0 0 C-0.76957031 0.38285156 -0.76957031 0.38285156 -1.5546875 0.7734375 C-3.50138653 1.74989676 -5.44299864 2.73649584 -7.3828125 3.7265625 C-8.63016168 4.35946695 -9.87755867 4.99227718 -11.125 5.625 C-12.07439453 6.11226562 -12.07439453 6.11226562 -13.04296875 6.609375 C-17.77399554 9 -17.77399554 9 -20 9 C-17 3 -17 3 -15.22265625 2.40234375 C-14.15337891 2.17224609 -14.15337891 2.17224609 -13.0625 1.9375 C-3.9099506 -0.07240649 -3.9099506 -0.07240649 0 0 Z " fill="#125617" transform="translate(122,48)"/>
<path d="M0 0 C-6.34060384 4.22706923 -13.58432038 4.2354184 -21 4 C-14.15525383 0.39667385 -7.64658978 -1.82853234 0 0 Z " fill="#1A4E3E" transform="translate(113,131)"/>
<path d="M0 0 C0.33 0.66 0.66 1.32 1 2 C0.01 2.99 -0.98 3.98 -2 5 C-1.125 1.125 -1.125 1.125 0 0 Z M-4 5 C-3.34 5.33 -2.68 5.66 -2 6 C-2.99 6.66 -3.98 7.32 -5 8 C-5.38932033 9.98985949 -5.71887936 11.99199544 -6 14 C-7.52542373 17.76271186 -7.52542373 17.76271186 -10 19 C-10.4560284 13.29964499 -9.60412752 10.45215753 -6 6 C-5.34 5.67 -4.68 5.34 -4 5 Z " fill="#ABDC57" transform="translate(90,70)"/>
<path d="M0 0 C0.66 0.33 1.32 0.66 2 1 C2 2.65 2 4.3 2 6 C1.34 6 0.68 6 0 6 C-0.33 10.95 -0.66 15.9 -1 21 C-1.66 20.67 -2.32 20.34 -3 20 C-3.40850553 12.91923749 -1.90420731 6.80074041 0 0 Z " fill="#255746" transform="translate(68,86)"/>
<path d="M0 0 C0.66 0 1.32 0 2 0 C1.3808361 2.584859 0.75492318 5.16776172 0.125 7.75 C-0.04902344 8.47960937 -0.22304687 9.20921875 -0.40234375 9.9609375 C-1.27908598 13.53285028 -2.12686823 16.79373841 -4 20 C-4.4731614 12.11397658 -4.17981006 6.79219135 0 0 Z " fill="#195B23" transform="translate(77,84)"/>
<path d="M0 0 C0.66 0.99 1.32 1.98 2 3 C4.64 2.67 7.28 2.34 10 2 C10 2.66 10 3.32 10 4 C7.03 5.65 4.06 7.3 1 9 C1 7.68 1 6.36 1 5 C-0.32 4.67 -1.64 4.34 -3 4 C-2.01 2.68 -1.02 1.36 0 0 Z " fill="#245A4A" transform="translate(60,134)"/>
<path d="M0 0 C0.33 0 0.66 0 1 0 C1 6.6 1 13.2 1 20 C0.01 20.33 -0.98 20.66 -2 21 C-2 21.99 -2 22.98 -2 24 C-2.66 23.67 -3.32 23.34 -4 23 C-3.79503906 22.42894531 -3.59007812 21.85789063 -3.37890625 21.26953125 C-1.03126261 14.20413485 -0.33709974 7.41619434 0 0 Z " fill="#17533D" transform="translate(65,109)"/>
<path d="M0 0 C0.66 0.66 1.32 1.32 2 2 C1.34 2 0.68 2 0 2 C0 2.66 0 3.32 0 4 C-0.969375 4.28875 -1.93875 4.5775 -2.9375 4.875 C-6.10664203 5.64214682 -6.10664203 5.64214682 -7 8 C-9.31 7.67 -11.62 7.34 -14 7 C-11.15497903 5.10331936 -8.42700115 3.76736522 -5.3125 2.375 C-4.31863281 1.92898437 -3.32476562 1.48296875 -2.30078125 1.0234375 C-1.54152344 0.68570313 -0.78226563 0.34796875 0 0 Z " fill="#D7EEE7" transform="translate(127,125)"/>
<path d="M0 0 C0.66 0 1.32 0 2 0 C2 0.66 2 1.32 2 2 C3.65 2 5.3 2 7 2 C3.80009492 4.74277578 0.99500618 6.6302836 -3 8 C-3 6.68 -3 5.36 -3 4 C-2.34 3.67 -1.68 3.34 -1 3 C-0.67 2.01 -0.34 1.02 0 0 Z " fill="#195746" transform="translate(126,119)"/>
<path d="M0 0 C1.32 0.33 2.64 0.66 4 1 C3.67 2.32 3.34 3.64 3 5 C3 4.34 3 3.68 3 3 C0.36 4.98 -2.28 6.96 -5 9 C-5 7.35 -5 5.7 -5 4 C-3.35 3.67 -1.7 3.34 0 3 C0 2.01 0 1.02 0 0 Z " fill="#285E54" transform="translate(142,109)"/>
<path d="M0 0 C1.32 0.33 2.64 0.66 4 1 C-1.445 5.455 -1.445 5.455 -7 10 C-7.33 9.01 -7.66 8.02 -8 7 C-7.34 7 -6.68 7 -6 7 C-5.67 5.68 -5.34 4.36 -5 3 C-4.360625 2.87625 -3.72125 2.7525 -3.0625 2.625 C-2.0415625 2.315625 -2.0415625 2.315625 -1 2 C-0.67 1.34 -0.34 0.68 0 0 Z " fill="#1A5C1F" transform="translate(98,57)"/>
<path d="M0 0 C3.63 0 7.26 0 11 0 C10.01 0.495 10.01 0.495 9 1 C9 1.66 9 2.32 9 3 C9.99 3 10.98 3 12 3 C11.67 4.32 11.34 5.64 11 7 C10.34 6.67 9.68 6.34 9 6 C9.33 5.34 9.66 4.68 10 4 C6.7 3.01 3.4 2.02 0 1 C0 0.67 0 0.34 0 0 Z " fill="#2D6354" transform="translate(78,51)"/>
<path d="M0 0 C0.33 0 0.66 0 1 0 C1 2.64 1 5.28 1 8 C0.34 8 -0.32 8 -1 8 C-1 9.65 -1 11.3 -1 13 C-1.99 13 -2.98 13 -4 13 C-3.52140759 11.39566191 -3.04210442 9.79153584 -2.5625 8.1875 C-2.29566406 7.29417969 -2.02882813 6.40085937 -1.75390625 5.48046875 C-1.19612127 3.64526945 -0.60655425 1.81966274 0 0 Z " fill="#9ACE65" transform="translate(79,83)"/>
<path d="M0 0 C0 1.66666667 0 3.33333333 0 5 C2.31 5.33 4.62 5.66 7 6 C7 6.33 7 6.66 7 7 C3.04 7 -0.92 7 -5 7 C-3.38262276 3.76524552 -2.52370777 2.29427979 0 0 Z " fill="#D9F7F1" transform="translate(57,146)"/>
<path d="M0 0 C0.75 1.625 0.75 1.625 1 4 C-0.625 7.1875 -0.625 7.1875 -3 10 C-5.75 10.875 -5.75 10.875 -8 11 C-7.59007812 10.45730469 -7.18015625 9.91460937 -6.7578125 9.35546875 C-6.21898437 8.64003906 -5.68015625 7.92460938 -5.125 7.1875 C-4.59132812 6.47980469 -4.05765625 5.77210937 -3.5078125 5.04296875 C-2.29185219 3.39543703 -1.13583859 1.70375789 0 0 Z " fill="#225F21" transform="translate(143,96)"/>
<path d="M0 0 C1.1171875 1.734375 1.1171875 1.734375 2 4 C1.3203125 6.140625 1.3203125 6.140625 0.125 8.25 C-0.26429687 8.95640625 -0.65359375 9.6628125 -1.0546875 10.390625 C-1.36664063 10.92171875 -1.67859375 11.4528125 -2 12 C-3.15957207 8.52128379 -2.77456651 7.65780355 -1.5625 4.3125 C-1.13130859 3.10013672 -1.13130859 3.10013672 -0.69140625 1.86328125 C-0.46324219 1.24839844 -0.23507813 0.63351563 0 0 Z " fill="#DFF5F0" transform="translate(61,125)"/>
<path d="M0 0 C2.64 0.99 5.28 1.98 8 3 C6.25 6.875 6.25 6.875 4 8 C3.67 6.35 3.34 4.7 3 3 C2.01 2.67 1.02 2.34 0 2 C0 1.34 0 0.68 0 0 Z " fill="#E5FAF6" transform="translate(80,52)"/>
<path d="M0 0 C-2.64 1.98 -5.28 3.96 -8 6 C-8.66 5.34 -9.32 4.68 -10 4 C-4.7704918 -1.59016393 -4.7704918 -1.59016393 0 0 Z " fill="#9DCF5B" transform="translate(130,112)"/>
<path d="M0 0 C0.99 0.33 1.98 0.66 3 1 C1.02 3.31 -0.96 5.62 -3 8 C-3.33 7.01 -3.66 6.02 -4 5 C-2.0625 2.3125 -2.0625 2.3125 0 0 Z " fill="#AAD864" transform="translate(139,98)"/>
<path d="M0 0 C0.66 0.66 1.32 1.32 2 2 C0.35 4.97 -1.3 7.94 -3 11 C-3.66 10.67 -4.32 10.34 -5 10 C-5 9.34 -5 8.68 -5 8 C-4.34 8 -3.68 8 -3 8 C-2.67 6.02 -2.34 4.04 -2 2 C-1.34 2 -0.68 2 0 2 C0 1.34 0 0.68 0 0 Z " fill="#A0D25B" transform="translate(146,87)"/>
<path d="M0 0 C-0.928125 0.4021875 -0.928125 0.4021875 -1.875 0.8125 C-4.2995233 1.95556848 -4.2995233 1.95556848 -6 5 C-8.475 4.01 -8.475 4.01 -11 3 C-7.18178484 -0.02823961 -4.81391924 -1.49397494 0 0 Z " fill="#D2EBE6" transform="translate(77,137)"/>
<path d="M0 0 C0 0.66 0 1.32 0 2 C-1.53125 3.5078125 -1.53125 3.5078125 -3.5 5.125 C-4.1496875 5.66382812 -4.799375 6.20265625 -5.46875 6.7578125 C-5.9740625 7.16773437 -6.479375 7.57765625 -7 8 C-7.99 7.34 -8.98 6.68 -10 6 C-8.71283353 4.99421411 -7.42011342 3.99553202 -6.125 3 C-5.40570313 2.443125 -4.68640625 1.88625 -3.9453125 1.3125 C-2 0 -2 0 0 0 Z " fill="#DBEEEB" transform="translate(138,118)"/>
<path d="M0 0 C0.33 0.99 0.66 1.98 1 3 C-0.07107117 3.86949317 -1.15745944 4.72014205 -2.25 5.5625 C-2.85328125 6.03816406 -3.4565625 6.51382813 -4.078125 7.00390625 C-6 8 -6 8 -8.234375 7.65234375 C-8.81703125 7.43707031 -9.3996875 7.22179687 -10 7 C-9.36191406 6.57847656 -8.72382812 6.15695313 -8.06640625 5.72265625 C-7.24011719 5.17480469 -6.41382812 4.62695312 -5.5625 4.0625 C-4.73878906 3.51722656 -3.91507812 2.97195312 -3.06640625 2.41015625 C-1.10014075 1.16197019 -1.10014075 1.16197019 0 0 Z " fill="#1A561F" transform="translate(130,111)"/>
<path d="M0 0 C-2.98646769 1.99097846 -5.59687262 2.94124926 -9 4 C-9.33 3.34 -9.66 2.68 -10 2 C-3.375 -1.125 -3.375 -1.125 0 0 Z " fill="#195041" transform="translate(123,127)"/>
<path d="M0 0 C0.66 0.33 1.32 0.66 2 1 C2.6328125 3.06640625 2.6328125 3.06640625 3.125 5.5625 C3.29257813 6.38878906 3.46015625 7.21507813 3.6328125 8.06640625 C3.75398437 8.70449219 3.87515625 9.34257813 4 10 C3.34 10 2.68 10 2 10 C1.01 7.03 0.02 4.06 -1 1 C-0.67 0.67 -0.34 0.34 0 0 Z " fill="#D5ECE8" transform="translate(145,114)"/>
<path d="M0 0 C0.33 1.32 0.66 2.64 1 4 C-0.32 4.99 -1.64 5.98 -3 7 C-3.66 6.34 -4.32 5.68 -5 5 C-4.67 4.01 -4.34 3.02 -4 2 C-2.68 2 -1.36 2 0 2 C0 1.34 0 0.68 0 0 Z " fill="#17513F" transform="translate(136,114)"/>
<path d="M0 0 C0.66 0 1.32 0 2 0 C1.01 2.97 0.02 5.94 -1 9 C-1.66 9 -2.32 9 -3 9 C-2.44271087 5.65626525 -1.64826111 2.96687001 0 0 Z " fill="#115317" transform="translate(77,84)"/>
<path d="M0 0 C0.66 0 1.32 0 2 0 C0.7508258 3.45925163 -0.67527795 6.14693203 -3 9 C-3.66 8.67 -4.32 8.34 -5 8 C-5 6 -5 6 -3.625 4.5625 C-3.08875 4.046875 -2.5525 3.53125 -2 3 C-1.34 2.01 -0.68 1.02 0 0 Z " fill="#E3F6F1" transform="translate(74,70)"/>
<path d="M0 0 C-0.66 0 -1.32 0 -2 0 C-2 0.66 -2 1.32 -2 2 C-6.455 2.495 -6.455 2.495 -11 3 C-7.68381684 -0.31618316 -4.50821267 -1.6697084 0 0 Z " fill="#96CE60" transform="translate(122,50)"/>
<path d="M0 0 C1 3 1 3 -0.1875 5.625 C-2 8 -2 8 -4.1875 8.8125 C-4.785625 8.874375 -5.38375 8.93625 -6 9 C-4.16172132 5.84866512 -2.24027294 2.88035092 0 0 Z " fill="#91CD5F" transform="translate(90,67)"/>
<path d="M0 0 C0 0.66 0 1.32 0 2 C-3.465 3.485 -3.465 3.485 -7 5 C-7.33 4.01 -7.66 3.02 -8 2 C-2.25 0 -2.25 0 0 0 Z " fill="#1B5342" transform="translate(70,136)"/>
<path d="M0 0 C1.32 0.66 2.64 1.32 4 2 C1 3 1 3 -2 2 C-1.34 1.34 -0.68 0.68 0 0 Z M-4 3 C-3.34 3.33 -2.68 3.66 -2 4 C-3.98 4.99 -3.98 4.99 -6 6 C-5.34 5.01 -4.68 4.02 -4 3 Z " fill="#DCEFEC" transform="translate(64,140)"/>
<path d="M0 0 C1.65 0.33 3.3 0.66 5 1 C5 1.66 5 2.32 5 3 C4.34 3 3.68 3 3 3 C3 3.66 3 4.32 3 5 C1.68 4.34 0.36 3.68 -1 3 C-0.67 2.01 -0.34 1.02 0 0 Z " fill="#A1D554" transform="translate(130,105)"/>
</svg>
