<?xml version="1.0" standalone="no"?>
<!DOCTYPE svg PUBLIC "-//W3C//DTD SVG 20010904//EN"
 "http://www.w3.org/TR/2001/REC-SVG-20010904/DTD/svg10.dtd">
<svg version="1.0" xmlns="http://www.w3.org/2000/svg"
 width="512.000000pt" height="147.000000pt" viewBox="0 0 512.000000 147.000000"
 preserveAspectRatio="xMidYMid meet">

<g transform="translate(0.000000,147.000000) scale(0.100000,-0.100000)"
fill="#000000" stroke="none">
<path d="M3180 1005 l0 -465 105 0 105 0 0 233 0 233 29 28 c31 29 90 43 136
32 14 -4 34 -21 45 -39 18 -29 20 -51 20 -259 l0 -228 105 0 105 0 0 258 c0
282 -7 333 -55 384 -43 46 -83 62 -160 62 -100 1 -159 -30 -198 -104 -15 -30
-30 -56 -33 -59 -2 -2 -1 84 3 192 l6 197 -106 0 -107 0 0 -465z"/>
<path d="M0 782 c0 -358 4 -653 9 -656 11 -7 144 131 165 173 41 78 48 117 56
291 10 202 29 290 90 418 49 104 88 161 163 239 32 34 56 66 53 72 -9 14 -171
65 -270 85 -43 9 -121 19 -172 23 l-94 6 0 -651z"/>
<path d="M1860 985 l0 -445 291 0 291 0 -30 35 c-17 19 -39 59 -48 90 l-18 55
-133 0 -133 0 -1 333 c-1 182 0 342 1 355 1 22 -1 22 -109 22 l-111 0 0 -445z"/>
<path d="M2635 1237 c-93 -31 -140 -71 -177 -152 -21 -45 -23 -65 -23 -195 0
-131 2 -150 24 -198 27 -59 74 -105 140 -136 40 -18 65 -21 191 -21 115 0 157
4 202 19 l57 18 6 57 c3 31 8 67 11 80 4 21 2 23 -18 17 -139 -40 -280 -45
-350 -12 -33 16 -68 64 -68 95 0 8 66 11 219 11 252 0 231 -10 231 109 0 142
-57 245 -162 291 -65 29 -219 38 -283 17z m194 -161 c31 -17 51 -54 51 -96 l0
-30 -126 0 -127 0 6 43 c8 62 51 97 118 97 27 0 62 -6 78 -14z"/>
<path d="M4125 1236 c-100 -32 -165 -94 -192 -186 -23 -76 -22 -258 1 -327 23
-69 82 -134 148 -164 46 -20 72 -24 188 -26 119 -3 143 -1 200 19 l65 23 9 73
c5 40 7 74 5 76 -2 3 -40 -4 -84 -15 -151 -36 -288 -18 -325 44 -42 68 -45 67
199 67 l219 0 7 63 c9 85 -8 181 -43 236 -34 57 -105 106 -172 120 -67 14
-175 13 -225 -3z m205 -173 c23 -20 33 -40 37 -70 l6 -43 -127 0 -126 0 0 33
c1 70 44 106 127 107 44 0 58 -5 83 -27z"/>
<path d="M4970 1229 c-48 -19 -110 -100 -110 -143 0 -8 -5 -18 -11 -22 -8 -4
-9 18 -4 80 l7 86 -101 0 -101 0 0 -345 0 -345 105 0 105 0 0 201 0 202 35 32
c40 38 115 60 179 53 l43 -5 -4 96 c-3 53 -6 102 -8 109 -5 15 -98 15 -135 1z"/>
<path d="M1234 569 c-47 -54 -175 -144 -268 -189 -136 -67 -239 -90 -445 -99
-189 -9 -247 -25 -329 -91 -76 -61 -127 -119 -116 -130 7 -7 231 -9 655 -8
l644 3 -3 85 c-5 142 -76 436 -108 447 -6 2 -19 -6 -30 -18z"/>
<path d="M2193 302 c-217 -1 -343 -6 -343 -12 0 -6 46 -10 115 -10 l115 0 0
-29 c0 -24 -3 -28 -20 -24 -12 3 -29 -2 -39 -11 -16 -15 -19 -15 -31 -1 -30
36 -96 11 -105 -39 -9 -47 25 -126 54 -126 l21 0 -20 37 c-30 56 -25 113 9
113 26 0 41 -21 41 -57 0 -23 5 -33 15 -33 10 0 15 10 15 34 0 36 21 62 44 53
11 -4 16 -26 18 -74 2 -52 6 -68 18 -68 12 0 16 20 18 113 l3 112 94 0 c88 0
95 -1 95 -20 0 -17 -7 -20 -48 -20 -35 0 -54 -5 -65 -18 -19 -21 -22 -57 -7
-67 7 -4 7 -12 0 -25 -34 -64 36 -134 115 -114 35 9 33 32 -2 27 -16 -3 -40 0
-55 6 -22 8 -28 17 -28 40 0 56 83 69 96 16 8 -32 34 -33 34 -1 0 38 -25 56
-80 56 -52 0 -69 12 -50 35 8 10 31 15 66 15 l54 0 0 35 0 36 62 -3 c58 -3 63
-5 72 -30 12 -35 -15 -68 -56 -68 -18 0 -28 -5 -28 -15 0 -8 4 -15 9 -15 5 0
25 -22 44 -48 19 -27 42 -49 51 -49 21 0 21 1 -14 52 -34 49 -36 55 -17 55 29
0 50 38 44 79 -4 36 -3 40 19 43 13 2 20 7 16 13 -4 6 -130 9 -349 7z"/>
<path d="M4335 290 c-4 -6 5 -10 20 -10 18 0 29 -8 37 -25 10 -21 8 -32 -10
-64 -12 -21 -22 -48 -22 -59 0 -35 22 -72 42 -72 15 0 17 3 8 19 -18 35 -10
101 13 101 6 0 21 -10 34 -22 l23 -21 23 21 c13 12 29 22 35 22 18 0 26 -50
14 -84 -13 -35 -8 -45 16 -30 27 18 29 101 2 129 -21 22 -21 24 -5 54 l16 32
107 -3 107 -3 3 -72 c2 -40 -2 -82 -8 -93 -14 -26 -70 -27 -93 -2 -32 36 -15
82 30 82 14 0 23 6 23 15 0 25 -57 19 -85 -10 -33 -33 -32 -70 4 -106 24 -23
38 -29 73 -29 72 0 82 14 88 122 l5 93 105 0 105 0 3 -27 c3 -27 2 -28 -48
-28 -80 0 -110 -21 -110 -78 0 -51 37 -82 100 -82 77 0 90 19 90 126 0 77 2
86 20 91 11 3 20 9 20 14 0 13 -777 12 -785 -1z m195 -26 c0 -21 -38 -84 -51
-84 -13 0 -49 61 -49 83 0 14 9 17 50 17 40 0 50 -3 50 -16z m520 -105 c0 -51
-16 -69 -59 -69 -44 0 -63 18 -63 56 0 34 16 44 75 44 46 0 47 -1 47 -31z"/>
</g>
</svg>
